<?xml version="1.0" encoding="UTF-8" standalone="no" ?>
<!DOCTYPE svg PUBLIC "-//W3C//DTD SVG 1.1//EN" "http://www.w3.org/Graphics/SVG/1.1/DTD/svg11.dtd">
<svg xmlns="http://www.w3.org/2000/svg" xmlns:xlink="http://www.w3.org/1999/xlink" version="1.1" width="33" height="33" viewBox="0 0 33 33" xml:space="preserve">
<!-- Created with SVG Stack Editor - https://svgstack.com -->
<defs>
</defs>
<rect x="0" y="0" width="100%" height="100%" fill="transparent"></rect>
<g transform="matrix(0.33 0 0 0.33 16.5 16.5)"  >
<g style=""   >
		<g transform="matrix(1 0 0 1 -12.45 11.02)" id="path_0"  >
<path style="stroke: none; stroke-width: 1; stroke-dasharray: none; stroke-linecap: butt; stroke-dashoffset: 0; stroke-linejoin: miter; stroke-miterlimit: 4; fill: rgb(81,81,82); fill-rule: nonzero; opacity: 1;"  transform=" translate(-37.55, -61.48)" d="M 0.951416 35.4988 C 0.951416 35.4988 -1.48421 33.7432 1.43854 31.3989 L 8.24814 25.3098 C 8.24814 25.3098 10.1966 23.2598 12.2568 25.0459 L 75.0959 72.6219 L 75.0959 95.4356 C 75.0959 95.4356 75.0655 99.018 70.4682 98.6222 L 0.951416 35.4988 Z" stroke-linecap="round" />
</g>
		<g transform="matrix(1 0 0 1 -34.86 12.64)" id="path_1"  >
<path style="stroke: none; stroke-width: 1; stroke-dasharray: none; stroke-linecap: butt; stroke-dashoffset: 0; stroke-linejoin: miter; stroke-miterlimit: 4; fill: rgb(50,52,59); fill-rule: nonzero; opacity: 1;"  transform=" translate(-15.14, -63.1)" d="M 17.1483 50.2041 L 0.95141 64.9295 C 0.95141 64.9295 -0.712936 66.1676 0.95141 68.3799 L 8.47141 75.22 C 8.47141 75.22 10.2575 77.138 12.8961 74.9561 L 30.0673 61.9357 L 17.1483 50.2041 Z" stroke-linecap="round" />
</g>
		<g transform="matrix(1 0 0 1 2.68 -24.39)" id="path_2"  >
<path style="stroke: none; stroke-width: 1; stroke-dasharray: none; stroke-linecap: butt; stroke-dashoffset: 0; stroke-linejoin: miter; stroke-miterlimit: 4; fill: rgb(50,52,59); fill-rule: nonzero; opacity: 1;"  transform=" translate(-52.68, -26.08)" d="M 45.5843 50.3258 L 75.2889 27.644 L 75.0961 4.95198 C 75.0961 4.95198 73.8275 -0.000470996 69.5956 2.57724 L 30.0674 38.5536 L 45.5843 50.3258 Z" stroke-linecap="round" />
</g>
		<g transform="matrix(1 0 0 1 34.8 0)" id="path_3"  >
<path style="stroke: none; stroke-width: 1; stroke-dasharray: none; stroke-linecap: butt; stroke-dashoffset: 0; stroke-linejoin: miter; stroke-miterlimit: 4; fill: rgb(96,99,104); fill-rule: nonzero; opacity: 1;"  transform=" translate(-84.8, -50.47)" d="M 70.4683 98.6528 C 72.1936 100.419 74.2842 99.8402 74.2842 99.8402 L 97.4327 88.4333 C 100.396 86.4138 99.98 83.9071 99.98 83.9071 L 99.98 15.7907 C 99.98 12.7969 96.9152 11.7618 96.9152 11.7618 L 76.8517 2.09027 C 72.4676 -0.619366 69.5956 2.5774 69.5956 2.5774 C 69.5956 2.5774 73.2896 -0.0814977 75.096 4.95214 L 75.096 95.0197 C 75.096 95.6388 74.9641 96.2477 74.7002 96.7957 C 74.1725 97.8613 73.0258 98.8558 70.2755 98.4397 L 70.4683 98.6528 Z" stroke-linecap="round" />
</g>
</g>
</g>
<g transform="matrix(0.33 0 0 0.33 16.5 16.5)"  >
<g style=""   >
		<g transform="matrix(1 0 0 1 -12.45 11.02)" id="path_0"  >
<path style="stroke: none; stroke-width: 1; stroke-dasharray: none; stroke-linecap: butt; stroke-dashoffset: 0; stroke-linejoin: miter; stroke-miterlimit: 4; fill: rgb(81,81,82); fill-rule: nonzero; opacity: 1;"  transform=" translate(-37.55, -61.48)" d="M 0.951416 35.4988 C 0.951416 35.4988 -1.48421 33.7432 1.43854 31.3989 L 8.24814 25.3098 C 8.24814 25.3098 10.1966 23.2598 12.2568 25.0459 L 75.0959 72.6219 L 75.0959 95.4356 C 75.0959 95.4356 75.0655 99.018 70.4682 98.6222 L 0.951416 35.4988 Z" stroke-linecap="round" />
</g>
		<g transform="matrix(1 0 0 1 -34.86 12.64)" id="path_1"  >
<path style="stroke: none; stroke-width: 1; stroke-dasharray: none; stroke-linecap: butt; stroke-dashoffset: 0; stroke-linejoin: miter; stroke-miterlimit: 4; fill: rgb(50,52,59); fill-rule: nonzero; opacity: 1;"  transform=" translate(-15.14, -63.1)" d="M 17.1483 50.2041 L 0.95141 64.9295 C 0.95141 64.9295 -0.712936 66.1676 0.95141 68.3799 L 8.47141 75.22 C 8.47141 75.22 10.2575 77.138 12.8961 74.9561 L 30.0673 61.9357 L 17.1483 50.2041 Z" stroke-linecap="round" />
</g>
		<g transform="matrix(1 0 0 1 2.68 -24.39)" id="path_2"  >
<path style="stroke: none; stroke-width: 1; stroke-dasharray: none; stroke-linecap: butt; stroke-dashoffset: 0; stroke-linejoin: miter; stroke-miterlimit: 4; fill: rgb(50,52,59); fill-rule: nonzero; opacity: 1;"  transform=" translate(-52.68, -26.08)" d="M 45.5843 50.3258 L 75.2889 27.644 L 75.0961 4.95198 C 75.0961 4.95198 73.8275 -0.000470996 69.5956 2.57724 L 30.0674 38.5536 L 45.5843 50.3258 Z" stroke-linecap="round" />
</g>
		<g transform="matrix(1 0 0 1 34.8 0)" id="path_3"  >
<path style="stroke: none; stroke-width: 1; stroke-dasharray: none; stroke-linecap: butt; stroke-dashoffset: 0; stroke-linejoin: miter; stroke-miterlimit: 4; fill: rgb(96,99,104); fill-rule: nonzero; opacity: 1;"  transform=" translate(-84.8, -50.47)" d="M 70.4683 98.6528 C 72.1936 100.419 74.2842 99.8402 74.2842 99.8402 L 97.4327 88.4333 C 100.396 86.4138 99.98 83.9071 99.98 83.9071 L 99.98 15.7907 C 99.98 12.7969 96.9152 11.7618 96.9152 11.7618 L 76.8517 2.09027 C 72.4676 -0.619366 69.5956 2.5774 69.5956 2.5774 C 69.5956 2.5774 73.2896 -0.0814977 75.096 4.95214 L 75.096 95.0197 C 75.096 95.6388 74.9641 96.2477 74.7002 96.7957 C 74.1725 97.8613 73.0258 98.8558 70.2755 98.4397 L 70.4683 98.6528 Z" stroke-linecap="round" />
</g>
</g>
</g>
</svg>